<svg xmlns="http://www.w3.org/2000/svg" viewBox="0 0 1024 1024" xml:space="preserve"><path fill="#0F2130" d="M256.131 791.21c-.522-.283-.766-.457-1.052-.918-.896-1.146-1.784-2-2.895-3.065-.229-.206-.184-.227-.194-.205-.823-.887-1.695-1.736-2.814-2.768-.235-.194-.176-.254-.206-.225-2.414-2.605-4.99-5.051-7.774-7.756-.255-.213-.196-.273-.226-.243-2.398-1.985-3.786-4.95-6.774-6.821-1.826-1.638-3.375-3.089-5.075-4.82-.744-1.12-.972-2.175-1.942-3.13-.237-.198-.181-.259-.212-.23-1.775-1.947-3.68-3.763-5.836-5.79-.55-.302-.786-.474-1.065-.922-.816-1.51-1.42-2.9-2.875-4.079-.24-.214-.198-.244-.207-.22-.862-1.757-2.049-3.28-3.792-4.776-.243-.215-.192-.241-.207-.216-1.115-1.566-1.931-3.375-3.794-4.782-.244-.215-.202-.25-.211-.225-1.125-2.433-2.333-4.828-4.78-6.769-.25-.224-.209-.256-.218-.231-.756-1.24-1.339-2.62-2.796-3.754-.243-.202-.194-.266-.223-.238-7.283-10.887-14.637-21.742-20.75-33.76-.26-.245-.223-.275-.223-.251-.153-.15-.307-.322-.702-.743-13.012-23.874-22.142-48.838-29.897-74.567-5.775-19.16-8.572-38.721-12.132-58.198-1.716-9.39-1.649-19.116-2.235-28.7-.425-6.948-1.559-13.86-1.051-20.864 1.183-16.322 1.907-32.65 4.686-48.862 2.776-16.2 6.013-32.286 11.53-47.71 6.904-19.309 14.024-38.517 23.28-56.976 7.154-14.27 14.332-28.452 23.42-41.515 6.226-8.949 13.553-17.141 20.524-25.56 10.57-12.76 20.498-26.174 32.104-37.922 12.064-12.212 24.617-24.085 38.783-34.093 23.484-16.591 47.606-32.066 73.483-44.693 5.835-2.847 11.802-5.284 18.153-6.792 4.706-1.118 8.664-3.976 12.957-6.025 9.415-4.492 19.504-7.348 29.67-9.833 14.786-3.614 29.791-6.037 44.775-8.594.653-.112 1.303-.335 1.956-.34 17.96-.118 35.965-2.464 53.851-.82 22.005 2.02 44.206 2.901 65.582 9.969 11.413 3.773 24.103 4.568 34.69 9.984 11.503 5.884 24.031 8.18 35.554 13.423 6.478 2.948 12.744 6.4 18.947 9.906 20.66 11.678 40.19 25.112 59.127 39.35 7.908 5.947 14.198 14.135 22.338 19.664 12.135 8.24 19.754 20.51 29.918 30.446.684.668 1.13 1.668 1.462 2.594 4.928 13.778 14.274 24.405 24.043 34.926 12.812 13.799 23.458 29.09 29.352 47.312 1.416 4.379 3.658 8.532 5.858 12.606 3.764 6.973 4.717 14.774 6.893 22.21.93 3.175 1.5 6.446 2.97 9.46 7.534 15.45 10.623 32.403 16.298 48.49 3.143 8.908 3.23 18.537 4.58 27.841 1.686 11.612 3.594 23.29 3.196 35.078-.66 19.532-3.161 38.856-6.056 58.204-2.575 17.216-9.5 33.106-12.976 49.903-3.566 17.226-11.135 32.889-16.67 49.33-2.746 8.162-4.12 16.95-9.018 24.124-7.838 11.478-15.272 23.575-24.95 33.358-10.39 10.502-16.93 23.679-27.039 34.16-5.023 5.207-9.65 10.68-15.734 14.954-7.966 5.599-14.666 12.803-21.663 19.644-7.761 7.588-15.652 15.332-24.856 21.351-15.658 10.24-30.201 22.195-47.278 30.263-6.523 3.082-13.586 4.323-20.232 6.934-11.653 4.58-24.186 6.919-34.916 13.876-1.328.86-3.139.978-5.108 1.445-18.966 6.809-38.228 10.858-57.73 13.786-22.572 3.388-45.349 4.12-68.075 2.999-17.624-.87-35.204-2.826-52.6-6.388-8.106-1.66-16.13-3.62-24.652-5.362-1.865-.327-3.287-.66-5.071-1.05-.532-.218-.7-.378-1.133-.765-1.425-.364-2.585-.501-3.977-.901-1.107-1.488-2.402-1.324-3.968-1.28a27.928 27.928 0 0 1-1.94-.072c-7.94-4.315-16.52-5.859-25.022-8.76-.329-.197-.282-.21-.297-.192-3.625-3.048-8.103-4.2-12.768-5.813-.308-.194-.776-.22-1.008-.245-1.178-1.024-2.39-1.43-3.982-1.77-.272-.18-.227-.193-.24-.174-5.402-2.695-10.523-5.981-16.723-7.81-.312-.19-.263-.205-.28-.185-.657-.848-1.62-1.23-2.8-1.838-14.451-5.553-27.182-13.405-38.705-23.223-6.302-5.37-13.21-9.888-20.213-14.861-.509-.4-.74-.612-1.179-.948-.745-.624-1.31-1.096-1.994-1.822-4.4-5.097-10.481-7.866-14.887-13.089-.255-.232-.213-.252-.222-.23-.52-.56-1.075-1.096-1.86-1.812z"/><path fill="#182939" d="M414.204 878.32c2-2.43 4.24-.432 6.226.075 17.007 4.337 34.309 6.68 51.712 8.724 17.044 2.001 34.13 2.484 51.173 1.69 15.464-.719 31.026-1.339 46.207-5.358 6.993-1.851 14.392-2.121 21.463-3.737 7.524-1.72 14.873-4.198 22.31-6.303.944-.267 1.96-.275 3.362-.398-9.435 5.778-20.546 7.977-31.36 10.871-11.66 3.12-23.841 3.197-35.706 5.165-17.479 2.9-35.08 2.143-52.623 1.825-19.482-.353-38.846-2.55-58.001-6.356-8.26-1.641-16.536-3.152-24.763-6.197zM180.007 695.389c3.692 1.38 5.207 5.205 6.571 8.417 3.332 7.847 9.59 13.746 13.196 21.333.495 1.041 1.283 1.921 1.177 3.542-2.606.444-3.06-1.951-4.149-3.427-6.758-9.155-13.023-18.61-16.795-29.865zM373.18 865.306c8.385 1.544 17.09 3.07 24.745 8.301-8.224-2.177-16.534-4.631-24.745-8.3zm-115.175-71.944c5.63 2.943 10.916 6.702 14.947 12.37-5.805-2.74-11.37-6.155-14.947-12.37zm80.161 55.939c6.377-.025 11.336 3.987 16.763 7.39-6.112-.74-11.018-4.629-16.763-7.39zm21.974 9.992c4.627.212 9.142 1.515 12.789 5.402-4.157-1.474-8.361-3.303-12.79-5.402zm-119.171-82.89c3.871.733 5.994 3.748 7.955 7.307-3.696-.933-5.836-3.922-7.955-7.307zm-6.881-7.089c3.905-.11 4.873 3.503 6.835 6.391-3.726-.226-4.52-3.863-6.835-6.39zm-13.14-13.942c3.043.182 4.706 2.351 5.974 5.335-2.96-.323-4.55-2.527-5.974-5.335zm-16.95-22.004c3.54.213 4.475 2.9 4.979 6.302-2.087-1.396-3.579-3.623-4.979-6.302zm5 7.004c2.514-.066 3.833 1.386 3.98 4.308-2.355-.133-2.962-2.212-3.98-4.308zm3.997 4.988c2.513-.053 3.83 1.398 3.984 4.312-1.677-.753-3.28-1.939-3.984-4.312zm187.193 128.971c1.173-1.605 2.524-1.992 3.744.39-1.13.188-2.312.028-3.744-.39zM216.995 750.352c2.094-.238 3.003.967 2.98 3.388-1.292-.506-2.559-1.404-2.98-3.388zM200.96 729.39c2.119-.3 3.012.894 3.018 3.284-1.36-.417-2.512-1.388-3.018-3.283zm48.007 55.009c1.563-.35 2.617.334 2.983 2.299-1.482.245-2.538-.446-2.983-2.3zm3.037 2.96c1.534-.293 2.605.392 2.948 2.378-1.454.173-2.575-.446-2.948-2.378zm103.153 69.927c1.178-.108 2.832-.842 3.756 1.31-1.348.425-2.427-.382-3.756-1.31zm-128.203-95.903c1.53-.31 2.06.593 2.022 2.358-.967-.19-1.753-.892-2.022-2.358zm108.142 85.915c1.002-.23 2.3-.486 2.83 1.403-1.102.31-2.018-.163-2.83-1.403zm-79.114-55.96c.866-.262 1.677-.023 1.959 1.375-.851.212-1.673-.001-1.96-1.375zm19.056 16.884c.204-.13.478.041.814.515-.216.143-.485-.03-.814-.515zm133.013 67.995c.202-.123.47.048.798.515-.214.14-.479-.032-.798-.515zM179.135 694.25c.223-.115.471.077.755.571-.218.114-.473-.075-.755-.572z"/><path fill="#FBFCFC" d="M303.86 274.328c.624-.643.937-1.017 1.257-1.648.292-1.35.762-2.35 1.804-3.374.288-.17.188-.189.21-.143.577-1.371 1.1-2.808 2.716-3.901.256-.201.168-.225.195-.189.731-1.295 1.346-2.69 2.92-3.748.293-.135.175-.193.205-.134.832-2.127 1.84-4.132 4.623-5.004 11.375-9.833 23.445-17.697 38.162-20.58 4.042-.792 8.162-1.185 12.667-1.916 2.316-.829 4.25-1.194 6.279-1.192 64.415.056 128.83-.075 193.681.313 1.964.999 4.993-.013 4.33 3.82 1.601 2.264 1.064 4.508 1.066 6.617.036 25.744-.024 51.488.054 77.232.021 7.081-.216 14.252 3.219 20.841 3.108 5.964 7.558 10.365 14.127 12.834.01.46.145.513.214.536.318-.394.621-.464 1.2.105 4.381 2.299 8.882 2.25 13.365 2.25 35.31 0 70.619-.014 106.39-.113 2.784-1.37 5.213-1.027 8.049-.321.854.291 1.309.35 2.106.35.686.04.96.235 1.22.783-.022.702-.097 1.148-.078 1.924.956 1.122 1.134 2.153 1.089 3.652-.497 2.223-.547 4.05.008 6.286.087 5.545.063 10.678.03 16.238-.379 2.392-.686 4.357-.03 6.77.095 11.115.05 21.79.049 32.914-.269 2.815-.235 5.348-3.663 6.293-.78.115-1.061.25-1.322.78-1.634 3.72-4.023 6.418-7.887 8.12-.325.116-.203.19-.24.128-.564 1.808-2.01 2.916-3.346 4.191-7.942 7.582-15.37 15.71-23.474 23.1-18.084 16.492-34.479 34.715-52.718 51.035a84.295 84.295 0 0 0-3.259 3.094c-25.596 25.484-51.741 50.41-77.272 75.961-5.272 5.276-11.256 9.863-15.578 16.48-.704.879-1.258 1.474-1.302 2.647a6.477 6.477 0 0 1-.293 1.847c-1.522 2.064-2.31 3.83-.008 5.936.384 1.25.354 2.192.08 3.469-3.22 3.636-3.097 7.577-2.223 11.953.388.986.46 1.676.311 2.715-.551 1.656-2.212 2.63-1.146 4.676.408 1.17.45 2.052.231 3.265-.35 1.114-.85 1.835-.84 3.035.07 1.198.058 2.073-.215 3.26-.22.864-.928 1.357-.1 2.295.508 3.571-1.29 6.616-.81 10.236-.67 2.937-4.844 4.573-1.967 8.386.378 2.819-.122 5.289-.009 8.114-.05 1.811-2.286 2.476-1.354 4.579.267 1.561-.162 2.65-.917 4.025-1.725 2.976-2.144 5.906-2.171 8.902-.036 3.818.055 7.627-1.325 11.3-.738 1.965-.113 3.898.417 5.846 1.385 5.086 1.468 10.237-.462 15.165-1.673 4.27-1.945 8.307.127 12.488 1.26 2.545 1.294 5.105-.654 7.462-.704.851-1.498 1.589-.69 3.032 3.2 5.715 3.138 5.75-2.506 9.166-1.574.72-2.855.797-4.53.47-2.46-1.408-4.659-2.097-7.478-1.128-1.111.242-1.87.277-3.02.151-.63-.17-.874-.27-1.427-.616-.441-.472-.573-.698-.786-1.306-.18-1.907-.194-3.433.038-5.308 2.194-1.485 1.265-2.534-.068-3.967-.125-21.952-.934-43.506-.618-65.497 2.485-3.61 3.248-7.096 2.222-11.068a13.06 13.06 0 0 1-.11-5.937c1.082-4.939-.064-9.497-1.94-14.413-.185-2.655-.223-4.922.123-7.547.3-1.104.367-1.849.493-2.966 2.457-5.36.897-10.125-.998-15.132a2476.81 2476.81 0 0 1-6.255-44.695c-1.208-9.227-2.342-18.468-3.295-27.725-.539-5.24-2.808-9.296-6.572-12.949-29.013-28.15-57.902-56.428-86.873-84.622a25552.241 25552.241 0 0 0-85.86-83.197c-6.73-4.635-12.293-10.047-16.85-16.596.302-.512.368-.737.332-1.14-.94-1.684-.852-3.428-.837-5.029.142-15.807-.74-31.626.687-47.858.292-.882.371-1.326.36-2.1-.736-6.787-.021-13.108 2.272-19.159 1.868-4.927 3.097-10.142 6.449-14.85z"/><path fill="#CBDBE1" d="M852.182 523.624c-.391.814-.483 1.24-.47 1.982.466 11.827.767 23.334-2.315 35.012-5.29 32.386-13.132 63.636-26.786 93.16-25.945 56.1-64.404 101.837-114.694 137.711-46.713 33.323-98.677 53.366-155.363 61.287-65.308 9.125-127.785-1.564-187.413-28.785-68.048-31.064-120.363-79.833-156.887-144.944-32.105-57.232-45.201-119.08-40.456-184.553 5.455-75.27 33.308-141.172 83.552-197.527 6.198-6.952 12.803-13.542 19.478-20.567.277-.057.295.152.622.429-7.812 15.376-9.764 31.799-8.55 49.239-1.77 5.848-5.907 9.695-9.107 14.107-10.884 15.006-20.813 30.678-28.69 47.37-5.77 12.223-11.013 24.821-14.846 37.957-2.408 8.252-5.332 16.432-6.853 24.844-2.052 11.354-5.08 22.556-6.246 34.385-.41.683-.544 1.096-.627 1.833.725 1.554.78 2.85.512 4.197-1.826 9.181-.61 18.478-1.01 27.715-.701 16.113 1.14 32.062 3.66 47.938 2.803 17.665 7.082 34.904 13.073 51.834 8.324 23.52 19.646 45.373 33.187 66.231 2.3 3.543 5.365 6.736 6.792 11.322 12.169 17.512 26.38 32.696 41.692 46.835 44.868 41.43 97.797 66.923 157.57 78.176 73.247 13.79 142.779 1.682 207.678-33.996C738.15 743.68 791.5 679.702 814.48 592.089c3.8-14.487 6.353-29.26 7.53-44.661-.689-5.211.017-9.938.691-15.05.323-.821.395-1.268.382-2.047-2.021-2.89.01-5.444-.012-8.006a332.857 332.857 0 0 0-2.15-35.04c-.211-1.846.239-3.622.18-5.892.037-1.2.028-1.945-.097-3.045-1.2-1.638-.983-3.167-.898-5.038-2.43-21.466-7.856-41.857-15.464-61.6-24.141-62.645-64.98-112.142-119.538-150.718-9.244-6.537-18.308-13.508-28.507-18.367-12.13-5.78-20.59-15.62-29.985-24.491-10.33-9.754-22.106-15.893-37.152-15.268-1.32.777-2.348.619-3.333.618-64.799-.037-129.597.095-194.797-.356-1.76-.39-3.118-.483-4.865-.44-3.396 1.565-6.565.492-10.062.51-3.266-2.408.057-2.233.639-2.5 8.785-4.026 17.93-7.111 27.124-10.045 32.846-10.48 66.42-17.268 100.962-17.433 61.784-.294 118.9 16.601 171.783 48.309 37.77 22.647 70.921 50.665 98.67 84.917 30.57 37.738 52.77 79.831 65.512 127.213 3.255 4.757 3.482 10 4.414 15.022 3.29 17.736 7.22 35.4 6.265 54.048-.14 1.494-.177 2.568-.087 3.947 2.344 5.641 1.274 11.113.498 16.948z"/><path fill="#FCFDFD" d="M470.636 694.56c-.157.861-.232 1.338-.149 2.148.943 7.935.496 15.56.471 23.169-.049 15.402.418 30.807-.476 46.648-.218.443-.536.79-.57 1.022-1.052 1.568-2.525 1.849-4.523 1.967-1.68-.078-2.904-.073-4.597-.063-21.902-1.343-43.368-.689-64.815-1.076-8.071-.146-16.35.377-24.557-2.973-18.3-4.716-34.451-12.48-48.036-25.19-18.04-16.88-27.747-37.71-28.132-62.326-.51-32.634-.212-65.282-.197-98.386 2.162-1.81 3.054.111 4.163 1.145 12.065 11.245 23.783 22.849 35.438 34.516 3.53 3.534 7.009 7.11 10.971 10.2 3.049 2.376 5.452 5.318 6.864 9.04 3.788 9.986 11.392 15.926 21.336 18.688 5.653 1.57 9.806 4.489 13.16 9.158 10.818 15.056 25.865 21.927 44.132 22.34 2.665.06 5.333.067 7.997 0 10.88-.274 21.232 1.526 30.818 7.865.597.698.759 1.187.702 2.107z"/><path fill="#30CAFB" d="M248.48 387.223c1.411-5.025 4.371-8.908 6.648-13.15 1.445-2.695 2.762-3.145 5.107-.804 8.13 8.118 16.398 16.097 24.626 24.117 31.477 30.685 62.97 61.352 94.434 92.051 17.16 16.743 34.212 33.597 51.464 50.245 2.812 2.713 2.995 4.388.134 7.135-8.528 8.187-16.82 16.62-25.486 25.134-2.243 1.25-3.297-.168-4.546-1.287-9.542-8.548-18.299-17.897-27.433-26.861-17.551-17.225-35.216-34.335-52.794-51.53-6.417-6.277-12.4-12.948-18.83-19.197-2.05-1.992-4.365-4.42.44-6.632a10.2 10.2 0 0 1 1.964-.523c1.532-.223 2.796-.08 4.188-.83.413-.29.575-.41.978-.72.402-.317.562-.446.966-.772.408-.33.572-.463.991-.787 2.558-2.13 2.521-4.7 2.084-7.665a58.9 58.9 0 0 1-.412-1.271c-.611-2.293-1.365-4.123-3.344-5.576a8.727 8.727 0 0 1-.994-.82c-.777-.83-1.198-1.553-2.118-2.227-.423-.29-.592-.41-1.014-.712-.594-.437-.932-.694-1.533-1.148-2.475-2.093-4.48-4.214-6.918-6.347-.656-.714-1.01-1.25-1.616-1.984a30.486 30.486 0 0 0-1.838-1.717c-.952-1.02-1.5-1.97-2.644-2.804a29.564 29.564 0 0 1-1.035-.73 17.028 17.028 0 0 1-1.39-1.24 15.544 15.544 0 0 1-1.194-1.358c-.651-.852-1.059-1.526-1.968-2.14a16.665 16.665 0 0 1-.903-.767c-.644-.614-1.05-1.049-1.746-1.61-.846-.706-1.396-1.286-2.12-2.108-.672-.814-1.022-1.506-1.828-2.18a99.97 99.97 0 0 1-.917-.642c-.538-.374-.846-.59-1.386-.973a9.78 9.78 0 0 1-1.292-1.164 12.983 12.983 0 0 0-1.343-1.23c-3.46-2.349-5.933-5.304-8.94-8.175a59.79 59.79 0 0 1-1.404-1.423c-.989-1.023-1.72-1.835-2.758-2.814-.395-.392-.55-.554-.925-.972a17.04 17.04 0 0 1-.835-1.08c-2.972-4.866-8.261-7.31-10.52-12.712z"/><path fill="#1C8893" d="M795.742 464.815c2.826 8.276 2.385 16.907 4.336 25.065 2.442 10.211-1.632 16.845-8.802 23.743-26.015 25.026-51.517 50.59-77.08 76.084-21.915 21.857-44.35 43.198-65.54 65.774-2.716 2.894-4.704 3.183-7.67.017-6.37-6.8-13.174-13.194-19.98-20.033-.128-2.675 1.38-4.283 2.97-5.75 17.747-16.361 34.196-34.068 52.112-50.253a73.184 73.184 0 0 0 3.578-3.487c20.361-21.087 41.951-40.922 62.753-61.564 16.054-15.93 32.78-31.188 48.903-47.061 1.177-1.159 2.294-2.454 4.42-2.535z"/><path fill="#218DC2" d="M302.855 466.905c-2.236 1.284-3.329 2.155-.865 4.679 16.596 17.002 33.659 33.524 50.755 50.02 14.002 13.509 27.657 27.376 41.52 41.03 3.277 3.228 6.768 6.238 10.51 9.42-6.785 7.285-13.976 14.441-21.016 21.744-1.881 1.951-2.961 1.628-4.756-.146-22.85-22.588-45.622-45.259-68.733-67.579-26.582-25.672-52.518-51.993-78.907-77.856-3.925-3.846-5.1-7.15-3.262-12.427 3.275-9.407 5.907-19.037 10.24-28.392 1.359-.282 2 .53 2.698 1.223 16.709 16.633 33.997 32.676 50.69 49.8.532.55.822.87 1.317 1.422.491.522.775.814 1.294 1.294.557.436.884.677 1.475 1.093.425.315.591.451.989.816 1.358 1.731 2.99 2.376 5.028 3 .5.276.684.413 1.023.859z"/><path fill="#2CC9A7" d="M796.072 464.534c-.792 1.023-1.665 1.534-2.356 2.227-13.248 13.304-27.028 26.05-40.654 38.96-10.359 9.813-20.133 20.245-30.499 30.051-15.22 14.399-29.702 29.557-44.986 43.866-12.023 11.256-23.272 23.28-35.343 34.458-7.192 6.66-14.507 13.166-21.131 20.88-6.517-5.853-12.756-11.917-19.088-18.286-.064-2.365 1.425-3.55 2.71-4.795 6.05-5.86 11.574-12.27 18.263-17.464a19.741 19.741 0 0 0 3.483-3.518c4.009-5.179 2.484-11.163-3.499-13.832-1.348-.601-2.889-.78-4.086-2.187 6.284-8.068 13.516-14.853 21.672-21.02 1.93 1.39 1.165 3.092 1.01 4.697-.364 3.786.648 7.057 4.095 8.969 3.682 2.042 7.043.947 10.106-1.665 2.415-2.059 4.57-4.359 6.773-6.635 12.044-12.447 24.54-24.437 37.018-36.448 8.512-8.194 16.838-16.587 25.225-24.914 19.613-19.476 39.518-38.655 59.465-57.788 1.328-1.275 2.552-2.668 4.937-2.613 3.953 8.589 5.768 17.523 6.885 27.057z"/><path fill="#FBFCFC" d="M556.23 753.488c.237-.896.369-1.342.583-2.132 5.57-5.103 12.15-7.172 19.208-7.694 9.437-.698 18.897-.951 28.361-1.224 12.805-.37 23.442-6.04 31.377-16.067 4.102-5.183 8.732-8.696 15.309-10.161 10.198-2.273 17.804-7.945 21.161-18.362.726-2.25 2.341-4.027 4.064-5.61 14.308-13.147 27.883-27.064 42.187-40.216.98-.9 1.947-1.82 3.587-2.424.638-.06.896-.028 1.466.238.235.966.157 1.697.2 2.78 2.266 8.694 1.302 17.124.73 25.522-1.731 25.447-11.321 47.29-30.594 64.308-7.18 6.34-14.719 12.478-24.676 15.275-.364.163-.284.21-.286.164-5.606 3.638-11.795 5.593-18.32 7.139-11.22 2.658-22.537 3.468-33.978 3.46-10.766-.006-21.54.54-32.295-.045-6.013-.328-11.853 1.515-18.297 1.01-2.24-.013-4.028-.008-6.261-.125-1.037-.169-1.584-.399-2.402-1.052-.393-1.073-.473-1.826-.669-2.939-1.189-4.001-.566-7.71-.455-11.845z"/><path fill="#819CAB" d="M262.889 614c.003 19.283.003 38.066.003 56.848-18.735-28.153-31.389-58.782-39.404-91.433-8.034-32.731-9.156-65.784-5.197-99.195 2.236-.383 3.284 1.333 4.52 2.547 12.356 12.137 24.59 24.4 37.09 36.388 2.463 2.363 3.119 4.707 3.108 7.863-.103 28.827-.097 57.655-.12 86.982z"/><path fill="#F6FBFC" d="M789.56 437.224c-7.219 5.009-12.661 11.603-18.7 17.497-34.795 33.954-69.433 68.068-104.11 102.14-2.849 2.799-5.503 5.8-8.417 8.526-5.309 4.963-9.157 5.874-13.312 3.422-4.562-2.692-5.76-6.955-4.035-14.5 11.668-13.114 24.488-24.731 36.881-36.775 34.016-33.057 68.19-65.951 102.307-98.903.697-.673 1.474-1.263 2.54-2.17 3.209 6.739 5.56 13.393 6.847 20.763z"/><path fill="#B9CFDB" d="M470.306 692.663c-1.421.105-2.728.13-3.627-.462-8.623-5.688-18.342-6.28-28.205-6.24-9.303.037-18.58-.029-27.457-3.434-10.523-4.037-19.07-10.669-25.526-19.849-3.011-4.281-6.637-6.758-11.84-8.174-10.76-2.93-19.065-9.257-22.726-20.39-.874-2.657-2.666-4.57-4.672-6.337-14.582-12.844-27.768-27.13-41.878-40.462-2.878-2.72-5.732-5.465-8.926-8.238-.33-8.449-.33-16.858-.33-25.268l1.297-1.043c8.578 8.942 17.022 18.017 25.768 26.79 10.45 10.485 21.134 20.738 31.792 31.014 1.273 1.227 1.942 2.333 2.111 4.178 1.116 12.16 10.853 21.089 22.907 20.873 2.818-.05 4.294 1.56 5.885 3.137 5.08 5.034 10.162 10.078 15.009 15.335 7.674 8.324 16.868 12.5 28.35 12.016 12.732-.538 25.339.363 36.736 6.974 2.142 1.242 5.192 1.911 5.505 5.65.676 4.746.776 9.158-.173 13.93z"/><path fill="#B9CED9" d="M723.617 649.395c-8.957 7.332-16.485 15.546-24.606 23.123-6.19 5.775-12.298 11.637-18.467 17.432-3.525 3.311-6.648 6.695-8.395 11.51-3.937 10.846-13.566 14.704-23.664 16.934-4.401.972-7.232 3.231-9.582 6.396-9.992 13.455-23.313 19.704-39.992 19.31-9.468-.223-18.922.276-28.286 1.83-4.656.771-8.647 3.351-13.361 5.028-.513-1.692-.659-3.437-.962-5.54-1.425-3.018-.537-5.83-.534-8.987.434-2.56 2.113-3.315 3.71-4.254 9.456-5.562 19.753-7.636 30.597-7.527 3.827.038 7.655.14 11.48.08 9.362-.144 17.582-3.172 24.33-9.83 2.606-2.571 5.421-4.95 7.847-7.677 4.474-5.032 8.962-8.582 16.649-8.536 8.926.054 17.376-9.65 18.465-18.816.239-2.007.406-3.763 2.026-5.357 16.241-15.991 32.388-32.078 48.592-48.107 1.04-1.03 2.333-1.805 3.908-2.703 1.187 8.43 2.49 16.861.245 25.69z"/><path fill="#FAFCFC" d="M601.812 256.25c.246-5.252.298-10.251.39-15.71.568-1.222 1.178-1.849 2.512-1.675 24.764 23.288 49.218 46.448 73.677 69.602 2.768 2.621 5.565 5.212 8.53 8.093 1.24 3.154-1.035 3.697-2.838 4.365-2.374.879-4.915.724-7.406.727-15.46.016-30.919 0-46.379.013-3.508.003-6.971-.286-10.38-1.14-10.45-2.616-17.175-11.488-16.998-22.334.084-5.146.328-10.298-.322-15.871-.159-.432-.295-.897-.421-1.104-1.272-5.23-.427-10.317-.383-15.794.302-2.8.38-5.179.34-7.989-.251-.597-.384-.764-.322-1.183z"/><path fill="#819BA9" d="M784.135 614.161c-7.739 20.779-16.988 40.358-29.856 59.368 0-6.483.012-11.87-.002-17.256-.051-19.485-.096-38.97-.187-58.455-.011-2.53.056-4.8 2.074-6.845 13.91-14.098 27.613-28.402 42.016-42.006.33-.312.812-.461 2.094-1.164-3.151 23.016-8.144 44.838-16.139 66.358z"/><path fill="#F4FCFC" d="M292.283 460.234c-18.304-17.312-35.99-34.781-53.616-52.748 2.434-5.957 4.972-11.583 7.774-17.436 2.582-1.117 3.948.445 5.363 1.793 2.608 2.485 5.05 5.141 7.993 7.8.283.227.278.27.3.277.126.318.32.56.817.823 1.122.907 2.03 1.72 3.104 2.79.245.609.423.899.954 1.198a286.594 286.594 0 0 1 9.844 9.186c.341.383.506.478.818.817.432.52.716.795 1.204 1.287.366.315.529.415.86.746.17.231.279.236.287.29.852.816 1.68 1.593 2.672 2.69.851.77 1.47 1.29 2.231 2.082.632.738 1.128 1.197 1.863 1.896.247.231.28.244.287.26a30.224 30.224 0 0 0 2.851 2.75c.573.272.823.466 1.097.975.23.406.363.59.773.972.278.196.343.21.355.24 1.042 1.3 2.202 2.441 3.706 3.728.777.546 1.274.884 1.905 1.498.531.52.793.865 1.192 1.49a229.488 229.488 0 0 1 7.919 7.223c.337.402.494.516.823.865.172.235.316.285.337.359.876.824 1.693 1.616 2.797 2.6.264.217.261.261.283.26 1.931 1.882 3.356 4.1 4.75 6.73.241.228.273.265.27.29 1.306 3.741-.744 6.59-2.67 9.859-.212.332-.26.318-.274.34-.35.049-.611.203-.927.679-.128.196-.155.249-.184.25-1.413.771-2.904 1.217-4.763 1.604-.743.208-1.186.27-1.948.423-.32.093-.36-.047-.373-.119-2.315-1.063-4.983-1.352-6.985-3.673-.318-.14-.673-.259-.811-.384-.317-.237-.495-.348-.859-.715-.462-.464-.739-.673-1.149-1.107-.308-.362-.483-.497-.87-.888z"/><path fill="#AEC5D2" d="M471.768 633.753c2.195 5.93 2.771 11.858 3.66 17.992-2.283-.006-3.324-1.726-4.738-2.627-12.108-7.71-25.583-11.823-39.65-11.98-13.595-.152-19.093-10.564-27.095-18.021-1.772-1.651.575-2.602 1.44-3.47a1516.278 1516.278 0 0 1 23.027-22.597c2.574-1.084 3.708.749 4.878 1.958 12.58 12.993 25.91 25.241 38.478 38.745z"/><path fill="#B0C7D4" d="M595.65 655.211c8.586 7.784 16.816 15.748 25.14 23.611 1.653 1.562 1.447 2.635-.064 4.039-1.946 1.808-3.897 3.642-5.612 5.662-4.728 5.571-10.468 7.618-17.925 7.66-16.559.094-32.13 4.376-46.189 14.683.757-4.856 1.414-9.073 2.281-13.608 14.36-13.975 28.058-28.085 42.37-42.047z"/><path fill="#121E28" d="M525.562 695.3a16.72 16.72 0 0 0 .78-3.98c-1.133-1.154-.517-1.955.166-3.043.595-3.276.983-6.266 1.325-9.703-1.833-2.763-.32-4.815.67-7.253.656-4.048 1.116-7.766 1.523-11.903-.168-.606-.283-.792-.157-1.202.477-1.24.714-2.255.903-3.664-.437-.912-.535-1.467-.084-2.313.333-1.31.487-2.377.568-3.843-1.086-1.605-.208-2.68.362-4.095.339-1.053.477-1.8.552-2.926-1.01-4.274-.523-8.038 1.247-12.046.409-1.403.562-2.466.653-3.93-1.642-2.36-.105-4.091.544-6.209.265-.7.33-1.092.33-1.779-.57-.808-.646-1.39-.076-2.218 1.71-4.06 4.696-6.665 7.564-9.463 34.92-34.082 69.748-68.257 104.658-102.349 21.326-20.827 42.75-41.553 64.44-62.458.464 3.684-1.124 6.054-4.473 8.31-3.871 2.607-6.776 6.627-10.194 9.938-1.666 1.614.393 3.131-.238 5.029-2.248.018-4.834-.731-6.925.989-.763.627-2.014 1.287-2.09 2.03-.822 8.048-9 9.022-13.234 13.776-3.148 3.534-5.585 7.616-9.023 10.955-1.28 1.243-2.36 2.66-4.024 3.33-2.785 1.122-5.98 1.778-4.681 6.055.108.358-.354 1.282-.577 1.29-6.712.263-7.964 7.423-12.841 10.43-4.06 2.505-8.041 7.08-10.863 11.677-1.065 1.735-2.128 2.828-3.988 3.304-2.149.55-3.616 1.638-3.394 4.157.131 1.496-.588 2.265-1.997 3-4.782 2.49-7.764 7.49-12.94 9.503-.142.055-.334.216-.346.343-.625 6.307-6.575 7.414-10.51 10.18-3.33 2.341-5.788 5.093-8.312 8.154-2.992 3.63-5.71 7.575-10.086 10.074-3.33 1.902-7.05 4.343-5.459 9.465.302.972-.478 1.957-1.19 1.801-3.323-.727-4.037 2.259-5.534 3.859-1.969 2.102-3.226 4.316-6.723 5.048-2.076.434-3.507 4.376-5.041 6.857-1.7 2.747-4.572 3.687-6.895 5.359-2.66 1.915-8.712 1.888-7.688 7.797.063.364-.346 1.022-.71 1.219-6.7 3.616-4.215 10.343-5.553 15.831-2.138 8.766-.844 17.86-3.303 26.684-1.166 4.186-2.83 8.995-.716 14.08.48 1.157-1.934 5.46-2.2 8.603-.876 10.386-2.347 20.748-2.663 31.148-.46 15.151-.139 30.327-.09 45.492.009 2.438-.362 4.86 1.154 7.24 1.425 2.235-1.032 3.439-2.594 4.995-.84-.282-1.211-.765-1.604-1.78-1.02-14.668.13-28.944-.736-43.116-.59-9.679-.07-19 2.313-28.73z"/><path fill="#F8FAFB" d="M595.792 654.786c.156 2.391-1.506 3.466-2.763 4.724-11.54 11.542-23.13 23.035-34.68 34.569-1.208 1.206-2.522 2.152-4.506 2.754 3.712-23.24 7.775-46.588 12.079-71.32 10.41 10.167 20.05 19.58 29.87 29.273z"/><path fill="#F7FAFB" d="M472.038 633.586c-2.285.387-3.417-1.283-4.838-2.71a4069.457 4069.457 0 0 0-38.14-37.836c8.51-10.032 18.465-18.85 28.007-28.083 2.14-2.071 2.512-.468 2.874 1.548 3.994 22.23 8.063 44.447 12.097 67.081z"/><path fill="#B3CAD5" d="M602.316 282.347c2.277.425 1.426 2.337 1.542 3.866.387 5.117-.319 10.276.808 15.375 2.66 12.033 9.606 18.157 21.843 18.302 18.103.215 36.212.088 54.317.021 2.24-.008 4.704.063 6.222-2.68 4.251 3.33 9.142 6.4 11.231 12-1.385.724-2.55.754-3.715.755-27.232.019-54.464.017-81.695.007-.997 0-1.995-.008-3.406-.484-7.33-.678-7.322-.678-7.266-7.67a404.81 404.81 0 0 0-.062-12.378c-1.168-3.805-.43-7.234-.355-11.04.28-5.483.346-10.548.536-16.074z"/><path fill="#F4FAFC" d="M618.531 574.709c3.185.506 6.198.941 8.517 2.978 4.49 3.945 4.202 10.534-.664 15.26a3875.16 3875.16 0 0 1-24.172 23.238c-4.548-3.004-7.937-7.113-11.777-10.75-1.65-1.563-1.301-2.71.119-4.065 9.235-8.82 18.452-17.658 27.977-26.661z"/><path fill="#0F222F" d="M252.956 695.736c-18.6-23.656-32.022-50.441-42.022-79.082-14.636-41.922-18.519-85.024-14.513-129.396 2.384.06 2.752.385 2.411 3.393-.716 6.329-4.465 12.92-.164 19.38.394.593.46 1.76.151 2.408-3.798 7.936-2.253 16.464-1.494 24.437 1.081 11.338 2.56 22.678 3.8 34.028.312 2.852 1.642 5.634 2.752 8.347 1.196 2.923 2.544 5.72 1.293 9.002-.272.715-.316 2.164.056 2.38 4.982 2.896 2.291 7.545 2.935 11.472.555 3.383.968 7.513 6.228 7.41 2.448-.048 1.53 2.146 1.567 3.397.187 6.22-1.163 12.798 3.082 18.174 2.682 3.396 5.93 6.451 7.139 10.67 1.48 5.166 6.872 8.62 6.057 14.837-.23 1.746.779 3.835 2.225 5.399 2.57 2.78 4.725 5.821 5.851 9.538.477 1.574 1.345 3.153 2.907 3.937 4.86 2.439 6.886 6.354 6.232 11.665-.143 1.161.049 2.163 1.084 2.458 3.276.934 2.33 3.521 2.423 6.146zm-55.729-210.785c.92-19.15 5.528-37.694 10.898-56.058 11.028-37.713 29.75-71.383 54.413-102.22a23.65 23.65 0 0 0 1.56 4.609c1.144 2.475.505 5.116-1.84 5.858-3.59 1.136-4.305 3.48-4.72 6.613-.436 3.283-2.708 5.832-4.94 7.855-2.316 2.1-4.977 3.618-5.543 7.047-.086.523-.885 1.347-1.327 1.33-5.964-.23-4.475 4.735-5.602 7.88-1.516 4.225-2.971 7.998-6.446 11.677-3.899 4.129-10.196 7.573-9.44 15.81.373 4.051-4.433 8.354-5.964 12.86-1.95 5.743-6.296 10.587-6.299 17.047-.001 3.064-.19 5.599-2.864 8.385-2.222 2.315-3.088 6.938-2.4 10.925.32 1.851.762 3.662-1.554 4.624-.875.363-1.3 1.252-1.077 2.045 1.813 6.452-2.297 11.787-3.23 17.708-.766 4.855-1.316 9.745-2.057 14.605-.076.5-.8.902-1.568 1.4z"/><path fill="#7993A0" d="M524.523 767.68c.596.461.694.687.678 1.167a440.437 440.437 0 0 1-.124 9.087c-.191 7.273-4.582 12.436-10.979 12.943-5.84.462-11.078-4.357-12.216-11.229-.107-.649-.27-1.288-.59-2.255-1.473-3.332-.45-6.49-.77-9.989.066-.71.124-.99.544-1.5.517-.027.672.176.97.736.353.73.644.788 1.281.602.824.181 1.372.34 2.21.45 2.407-.963 4.57-.83 7.115-.152 1.751.246 3.139.299 4.939.288 2.424-.96 4.455-1.543 6.942-.147z"/><path fill="#081724" d="M669.257 757.91c12.556-6.719 24.205-15.132 33.567-26.475 14.269-17.286 20.804-37.27 20.739-59.555a755.61 755.61 0 0 1 .173-18.453c1.899 1.317 2.134 3.604 2.26 5.94.71 13.146-.555 26.161-3.198 39.002-.85 4.133-2.799 8.127-4.75 11.925-2.444 4.756-2.33 10.73-7.105 14.409-1.823 1.404.509 3.629-.538 5.641-3.132 6.018-6.968 10.712-13.878 13.023-2.675.895-7.599 1.698-7.017 7.045.107.983-1.245 2.786-2.824 1.604-2.223-1.664-3.865-.033-4.696 1.128-3.145 4.393-7.81 4.24-12.733 4.765z"/><path fill="#2A4456" d="M464.625 768.297c1.711-.268 3.072-.369 4.843-.494.601 8.812.23 17.69 2.5 26.775-4.976 3.448-10.544 1.606-16.262 2.057-2.41-1.678-2.455-3.97-2.144-6.01 1.06-6.958 1.942-13.984 5.167-20.822.464-.506.672-.683 1.245-1.035 1.674-.327 2.99-.202 4.65-.471z"/><path fill="#1D3141" d="M459.562 768.777c-1.894 8.657-4.691 17.009-4.596 26.35-2.422 3.673-5.417 2.002-8.641 1.057-7.01-6.612-3.094-13.618-1.676-20.389.435-2.078 1.496-4.024 2.325-6.4 4.056-1.476 8.131-.648 12.588-.618z"/><path fill="#7F99AA" d="M762.643 375.349c7.178 11.932 7.14 11.896-2.262 21.601-1.706 1.761-2.965 3.955-4.431 5.95l-1.507-1.138v-38.833c3.411 3.787 5.5 8.092 8.2 12.42z"/><path fill="#1B3142" d="M559.045 768.543c1.707-.443 3.433-.493 5.582-.45 3.8.84 7.231.158 10.988.704 1.295 4.36 3.784 8.093 3.902 12.399.145 5.29-.55 10.531-2.405 15.662-3.065-1.06-5.77 1.112-8.797-.256-1.506-5.673-1.216-11.283-2.47-16.8-1.06-4.665-2.521-8.476-6.8-11.259z"/><path fill="#253F51" d="M558.701 768.07c6.24 1.215 7.849 5.458 8.348 10.768.501 5.343 3.56 10.492 1.06 16.428-4.279 3.033-8.444 1.417-12.905-.13.346-6.364.835-12.375 1.681-18.334.394-2.776-1.904-5.414-.001-8.499.602-.34 1.048-.327 1.817-.233z"/><path fill="#091720" d="M591.415 354.275c-11.99-4.179-18.434-13.39-18.555-27-.177-19.966-.058-39.934-.059-59.902 0-9.817.011-19.635.11-29.913 3.324.382 2.03 3.047 2.036 4.925.086 25.597.01 51.194.1 76.79.017 4.703.318 9.44.954 14.099 1.32 9.658 7.703 15.707 15.414 21z"/><path fill="#000D13" d="M568.723 232.747c-9.353.39-18.997.55-28.641.552-52.252.016-104.503-.017-156.755-.001-4.489.001-8.978.24-13.877.303.252-2.053 1.946-1.578 3.367-1.578 64.398-.019 128.796-.022 193.194-.006.807 0 1.614.279 2.712.73z"/><path fill="#000E16" d="M391.21 203.153c9.86-.366 20.002-.452 30.144-.45 55.578.015 111.156.051 167.196.174-.836 1.626-2.616 1.105-4.217 1.106-62.814.022-125.627.02-188.441.006-1.476 0-3.01.303-4.683-.836z"/><path fill="#011720" d="M609.156 329.667c29.21-.377 58.551-.39 88.354-.327-.146 2.103-1.843 1.641-3.265 1.642-27.27.018-54.539.017-81.808.005-1.125 0-2.375.262-3.281-1.32z"/><path fill="#648091" d="M445.653 795.914c3.014-.12 5.713-.156 8.856-.277 5.818-.28 11.193-.477 17.035-.663 1.831 2.804 3.196 5.597 4.935 9.157-11.32-1.251-21.461-4.009-31.897-7.092-.541-.256-.758-.334-.755-.679.65-.298 1.081-.33 1.826-.446z"/><path fill="#081724" d="M576.448 769.012c-3.895-.114-7.32-.238-11.072-.594 18.266-.34 36.858-.348 55.448-.588 16.402-.213 32.293-3.103 47.71-9.95-3.639 3.822-7.776 7.413-13.865 7.262a8.115 8.115 0 0 0-2.908.467c-10.83 3.939-22.11 3.34-33.329 3.398-8.39.043-16.786.545-25.148.622-5.381.05-10.902-.49-16.836-.617z"/><path fill="#000E16" d="M501.418 765.265c.01.408-.355.433-.486.56-.25.325-.369.522-.688.437-.213-36.775-.231-73.27-.222-109.763 0-1.31.274-2.618.72-4.22.446 2.092.592 4.477.886 7.283 1.17 10.126 1.405 19.837.209 30.008-.835 22.87-.505 45.293-.238 68.08.689.684.898 1.151.47 2.051-.426 1.91-.543 3.533-.65 5.564z"/><path fill="#081724" d="M851.948 503.231c-1.04-8.512-1.644-16.96-2.597-25.368-1.648-14.552-4.517-28.89-8.094-43.469 4.1 1.324 3.912 5.54 4.554 8.711 2.315 11.43 4.45 22.941 5.731 34.523.939 8.48 2.988 17.067.406 25.603z"/><path fill="#000D13" d="M470.63 766.835c-.323-22.875-.28-45.884-.111-69.343 1.792.184 1.49 1.634 1.49 2.925.002 21.06-.005 42.119-.027 63.179 0 1.115.286 2.373-1.353 3.239z"/><path fill="#121E28" d="M460.229 768.98c-4.258.02-8.27.03-12.741.043-21.686-.004-42.912-.036-64.137-.001-4.363.007-8.378-1.08-12.257-3.51 23.812 4.15 47.975 1.719 72.02 2.364 5.649.152 11.304.061 17.417.17.634.231.807.373.708.713-.273.197-.765.212-1.01.221z"/><path fill="#648091" d="M554.68 795.029c4.336.086 8.437.44 12.951.708 3.137.14 5.86.367 8.841.866-8.192 2.258-16.365 5.494-25.649 6.218 1.352-2.81 2.487-5.167 3.857-7.792z"/><path fill="#091720" d="M294.706 310.254c.299 17.193.311 34.64.242 52.496-2.906-1.17-1.812-4.008-1.844-6.19-.192-13.27-.069-26.546-.12-39.819-.01-2.228.612-4.235 1.722-6.487z"/><path fill="#081724" d="M820.858 481.164c2.673 15.778 2.93 31.873 2.23 48.42-1.406-.236-2.178-1.2-1.86-2.753 2.433-11.862-.995-23.667-.414-35.537.158-3.223-2.307-6.51.044-10.13z"/><path fill="#091720" d="M303.807 274.087c-4.466 10.527-8.142 21.392-8.643 33.529-2.252.114-2.117-1.302-1.928-2.931.507-4.369 1.598-8.593 1.442-13.153-.103-3.018 3.618-5.614 4.227-9.065.585-3.312 2.073-6.085 4.902-8.38z"/><path fill="#081724" d="M849.532 560.897c.844-11.308 1.745-22.73 2.154-34.585.255-.281.477-.184.493-.06 1.43 11.662 1.767 23.254-2.647 34.645z"/><path fill="#091720" d="M724.241 427.23c-.363-11.59-.406-22.952-.341-34.773.502-.807.962-.951 1.794-.677.307 11.57.306 22.925.303 34.748-.407.849-.884 1.002-1.756.702z"/><path fill="#081724" d="M723.483 649.863c-.018-8.464.076-16.846.23-25.696 1.936-1.024 4.043-1.828 1.825 1.443-.93 1.372-.394 2.822-.107 4.283 1.157 5.893.437 11.847.408 17.774-.003.676-.83 1.347-1.634 2.212-.36.192-.609.066-.722-.016z"/><path fill="#091720" d="M294.562 364.562c5.583 4.994 10.935 10.386 16.429 16.086-1.871.58-3.182-.544-4.666-1.722-2.176-1.728-3.5-5.637-7.549-3.48-.209.112-1.15-.503-1.124-.695.52-3.833-3.62-6.067-3.09-10.189z"/><path fill="#F8FAFB" d="M500.003 634.437c4.347-.57 2.704 2.937 3.207 4.948.804 3.22 2.293 6.681-1.49 9.54-.832-4.63-1.305-9.34-1.717-14.488z"/><path fill="#CBDBE1" d="M260.02 399.541c-3.336.017-4.583-3.116-6.784-4.972-1.888-1.591-3.496-3.515-6.196-4.61.122-.985.579-1.833 1.22-2.883 4.023 3.912 7.863 8.024 11.76 12.465z"/><path fill="#091720" d="M724.321 387.206c-.41-5.894-.505-11.583-.497-17.729.511-.82.987-.972 1.854-.696.324 5.907.324 11.597.324 17.756-.384.842-.84.977-1.68.67z"/><path fill="#121E28" d="M712.178 440.884c2.126-2.616 4.64-5.187 7.46-7.9.325.506.233 1.182.379 1.802.914 3.87.045 6.292-4.56 5.938-.953-.073-1.927.129-3.279.16z"/><path fill="#081724" d="M852.284 523.924c-.484-5.28-.567-10.65-.561-16.48.656-.191 1.699.045 1.722.358.4 5.369 1.794 10.805-1.16 16.122z"/><path fill="#000D13" d="M470.102 693.349c.052-4.676.203-9.031.468-13.835 2.549 4.658 1.625 9.88.319 15.268-.452-.263-.569-.689-.787-1.433z"/><path fill="#081724" d="M822.568 532.1c.599 4.659.228 9.381-.51 14.49-2.98-4.578-1.157-9.482.51-14.49z"/><path fill="#121E28" d="M723.773 427.301c.608-.298 1.07-.3 1.876-.302-.141 2.318 1.667 3.52 3.882 5.815-3.384-.983-5.634.818-8.301-.71.487-1.654 2.453-2.448 2.543-4.803z"/><path fill="#000E16" d="M556.015 753.21c.453 3.504.585 7.18.637 11.31-3.04-3.21-1.66-7.198-.637-11.31z"/><path fill="#121E28" d="M720.891 356.483c-2.27.421-4.642.48-7.45.45 1.879-3.346 4.594-2.292 7.45-.45z"/><path fill="#000E16" d="M601.72 265.292c.37 4.738.444 9.768.424 15.258-2.146-4.608-1.09-9.8-.425-15.258z"/><path fill="#121E28" d="M723.892 387.298c.558-.295 1.002-.295 1.778-.293.332 1.386.332 2.772.332 4.574-.443.417-.887.418-1.663.419-.41-1.468-.486-2.936-.447-4.7z"/><path fill="#091720" d="M317.78 255.913c-1.12 1.764-2.558 3.402-4.29 5.188.043-2.522-.902-6.192 4.29-5.188z"/><path fill="#121E28" d="M726.002 368.58c-.461.419-.922.42-1.73.431-.426-1.474-.507-2.957-.467-4.738.532-.664 1.01-.804 1.874-.494.322 1.61.322 2.997.323 4.802z"/><path fill="#000E16" d="M601.709 298.294c.347 3.075.41 6.44.393 10.258-1.967-2.924-1.059-6.461-.393-10.258z"/><path fill="#011720" d="M500.032 766.436c.013-.455.391-.464.58-.473.96 3.36.612 6.776.55 10.643-2.33-2.724-.646-6.336-1.13-10.17z"/><path fill="#081724" d="M819.861 473.164c1.23 1.08.897 2.633 1.068 4.454-2.858-.482-2.015-2.38-1.068-4.454z"/><path fill="#000E16" d="M376.27 203.258c2.755-1.081 5.839-.604 9.354-.54-2.576 2.285-5.85 1.23-9.354.54z"/><path fill="#091720" d="M309.76 265.015c-.458 1.313-1.258 2.58-2.332 4.02.352-1.308-2.44-4.616 2.333-4.02z"/><path fill="#000E16" d="M555.692 736.292c.388 2.435.497 5.152.53 8.318-2.106-2.225-1.182-5.154-.53-8.318z"/><path fill="#091720" d="M312.878 261.17c-.5 1.22-1.377 2.418-2.532 3.779-.376-1.718-.24-3.452 2.532-3.779zm413.121 102.452c-.46.377-.921.375-1.728.364-.423-1.079-.5-2.147-.457-3.601 2.258-.226 2.175 1.346 2.185 3.237z"/><path fill="#B3CAD5" d="M604.88 238.654c-.585.678-1.312 1.015-2.338 1.388-.559-.984-1.05-2.24-.048-2.89.94-.611 1.54.639 2.385 1.502z"/><path fill="#091720" d="M306.822 269.158c-.126.947-.64 1.916-1.425 3.075-.263-1.063-.724-2.507 1.425-3.075z"/><path fill="#121E28" d="M724.224 357.885c-.447-.137-.655-.381-1.029-.799.382-.888 1.158-1.371 1.864-.752.679.596-.129 1.046-.835 1.551z"/><path fill="#1D3141" d="M443.885 795.86c.162.234.258.62.315.81-.663.182-1.644.419-1.71-.616-.049-.77.63-.807 1.395-.194z"/><path fill="#000E16" d="M601.847 256.094c.21.07.26.237.24.656-.181-.018-.29-.289-.24-.656z"/><path fill="#648091" d="M271.148 276.418c.747-1.216.835-.53.767.315-.34.098-.524.034-.767-.315z"/><path fill="#091720" d="M592.827 354.823c.174.2-.304.277-.304.277s-.474-.099-.67-.242c.136-.174.468-.204.974-.035z"/><path fill="#0F2331" d="M657.198 403.534c-.004.288-.094.61-.477 1.335-2.378.627-3.513 1.992-4.295 4.093.027.346-.051.414-.097.44-2.298.648-4.417 1.73-7.073 2.192-.743.235-1.187.279-1.953.224-2.515-1.258-4.894-.797-7.192-.798-47.778-.028-95.556.003-143.334-.03-36.607-.024-73.213.053-109.82.003-2.161-.003-4.33.134-6.937-.308-2.34-.17-3.867-1.233-5.937-2.098-.41-.174-.457-.237-.49-.258-.802-3.01-3.622-5.07-3.348-8.642.609-7.917 4.89-11.878 14.365-12.64 1.823-.146 3.66-.045 5.492-.045 79.577 0 159.155-.059 238.732.072 10.059.016 20.61-2.342 30.233 4.444.992 1.03 1.524 1.911 2.106 3.104-.094 2.84 1.394 5.324.263 8.265.009.385-.032.499-.07.545-.039.046-.253.134-.168.102z"/><path fill="#122331" d="M449.453 469.53c-4.925.26-9.435.591-13.899.274-7.19-.511-11.967-5.408-12.337-12.074-.344-6.203 4.003-11.581 10.78-13.092 1.925-.43 3.955-.538 5.938-.54 67.49-.056 134.979-.073 202.468-.138 3.053-.003 5.973.393 8.691 1.743 5.333 2.648 8.125 8.403 6.968 14.129-1.187 5.872-6.523 9.645-14.688 9.99-1.925-1.014-3.62-.813-5.271-.813-61.416-.013-122.831-.012-184.247-.004-1.328 0-2.667-.076-4.403.524z"/><path fill="#0F222F" d="M484 328.981c15.162-.016 29.824-.064 44.485-.036 8.848.017 14.46 4.812 14.55 12.278.09 7.663-5.617 12.75-14.642 12.76-49.483.056-98.966.085-148.45.052-10.448-.007-16.579-7.274-13.988-16.245 1.62-5.606 6.627-8.793 14.08-8.798 34.488-.021 68.977-.01 103.965-.01z"/><path fill="#0F2130" d="M366.299 275.284c-.044-.825.072-1.373.412-2.1 8.275-6.627 17.543-8.279 27.495-6.92 5.176.708 10.271-.385 15.424-.322 20.21.247 40.423.746 60.634.516 18.419-.21 36.842-.175 55.252-.603 6.384-.148 10.296 2.092 13.264 7.47 2.881 5.222 2.351 9.824-1.436 14.726-.558.664-.93.92-1.542 1.166-3.173.694-6.153.798-9.162.797-48.312-.022-96.624-.038-144.935.027-3.913.005-7.625-.333-11.464-2.63-.434-.239-.278-.395-.344-.307-.909-1.74-2.035-3.42-2.994-5.557-.72-2.172.626-4.148-.604-6.263z"/><path fill="#102230" d="M605.75 513.733c.31.717.387 1.169.34 1.947-.704 1.017-.96 1.83-1 3.04-1.89 5.445-5.969 8.125-11.036 8.148-33.973.155-67.947.04-101.92-.012-.817-.002-1.633-.3-2.797-.7-1.676-1.799-3.646-2.454-5.53-3.58-.318.098-.365-.006-.412-.039-3.313-5.389-2.697-10.789-.185-16.597.043-.387.141-.57.224-.635 4.89-3.285 10.276-3.376 15.827-3.355 29.6.11 59.2.056 88.8.046 4.527-.002 8.97.35 13.481 2.772.411.253.456.23.447.253 1.28 2.784 2.8 5.449 3.761 8.712z"/><path fill="#3A494D" d="M655.383 391.346c-2.597 1.219-5.141 2.22-6.643-1.769-.943-2.505-3.694-1.731-5.783-1.734-19.974-.029-39.947-.018-59.92-.018-66.08 0-132.159.027-198.237-.075-3.551-.005-6.913.823-10.323 1.317-5.022.727-9.03 9.907-6.637 14.45.696 1.32 1.66 2.49 1.765 4.419-4.22-2.94-4.966-7.365-3.705-12.16 1.308-4.975 4.885-7.918 9.825-8.838 3.25-.604 6.622-.744 9.94-.746 84.986-.051 169.973-.064 254.959-.05 5.373 0 10.7.398 14.76 5.204z"/><path fill="#011720" d="M373.782 410.22c87.696-.237 175.249-.236 262.801-.173 2.037.002 4.341-.943 6.266 1.308-28.003.436-56.139.556-84.274.568-57.779.024-115.557-.004-173.335-.038-3.48-.002-7.004.35-10.807-.88-.527-.274-.66-.407-.65-.786z"/><path fill="#152427" d="M537.486 288.32c-.212-1.004-.463-2.37.076-3.252 4.488-7.345-.867-11.91-4.606-16.957-.95-1.284-2.323-1.11-3.632-1.101-11.531.082-23.155 1.164-34.555.598-17.536-.871-35.005 2.085-52.554-.293-6.264-.85-13.167-2.089-19.459 1.37-.888.488-2.469.498-3.38.038-6.027-3.048-12.222-1.923-18.37-.867-4.56.783-8.835-1.048-13.341-.955-5.635.117-10.606 1.803-15.254 4.73-1.47.926-2.953 1.474-5.077 1.372 1.233-4.991 5.348-6.664 9.937-7.252 3.45-.442 6.984-.298 10.48-.302 46.324-.05 92.647-.085 138.97-.114 10.792-.006 16.574 4.897 16.34 13.69-.109 4.048-2.224 6.837-5.575 9.296z"/><path fill="#011720" d="M449.478 469.83c.15-2.44 2.096-1.81 3.643-1.81 61.98-.024 123.961-.022 185.942-.001 1.265 0 2.719-.441 3.78 1.324-14.326.422-28.788.525-43.25.534-49.884.029-99.769.025-150.115-.047z"/><path fill="#213538" d="M369.95 287.495c48.4 3.937 97.044.383 145.628 1.53 6.321.15 12.649.056 19.48.128-1.944 1.814-4.79 1.72-7.592 1.721-48.542.037-97.084.056-145.626.093-4.212.004-8.323-.266-11.89-3.472z"/><path fill="#F5F8F8" d="M524.97 767.52c-2.106.44-4.117.423-6.552.325-.245-1.225.522-1.67 1.565-2.003 1.235-.394 2.76-.771 2.814-2.405.054-1.616-1.331-1.996-2.598-2.566-2.863-1.289-4.412-2.803-.388-4.837 2.941-1.488 2.702-3.92 1.297-6.339-2.53-4.356-2.582-8.54-.53-13.256 2.231-5.126 2.277-10.627.187-15.992-.355-.912-.96-2.09-.666-2.835 2.803-7.102 1.326-14.76 3.008-21.989.278-1.195 1.173-.888 2.35-.745-1.918 24.067.159 48.14-.487 72.642z"/><path fill="#091720" d="M601.793 504.71c-8.287-1.718-16.874-1.772-25.501-1.738-24.755.098-49.511.035-74.266.03-6.057-.001-12.208-.664-18.149 2.419 2.776-3.28 6.598-4.428 10.947-4.423 32.394.043 64.789.06 97.184.01 3.689-.006 6.79 1.197 9.785 3.702z"/><path fill="#F8FAFB" d="M501.99 689.989c-1.031-9.68-.593-19.396-.366-29.558 1.982 3.457 4.206 7.035 2.685 11.92-.99 3.18-.58 6.856.352 10.345.713 2.672 1.02 5.674-2.67 7.293z"/><path fill="#091720" d="M483.001 505.78c1.233 1.648 2.58 3.262.14 5.378-2.112 1.83-1.42 4.57-.385 6.869.546 1.213 1.4 2.249.763 4.08-4.765-4.927-4.935-9.618-.518-16.327z"/><path fill="#F5F8F8" d="M533.29 629.015c.006 3.748-.372 7.521-.967 11.639-.535.264-1.004.29-1.148.088-1.485-2.096-.355-9.562 2.114-11.727zm1.169-10.02c.2 1.72.044 3.553-.28 5.695-6.095-1.752-2.778-3.663.28-5.695z"/><path fill="#091720" d="M606.042 513.615c-2.9-1.601-3.435-4.71-4.046-8.179 2.665 1.679 3.844 4.506 4.046 8.179z"/><path fill="#F5F8F8" d="M528.368 671.083c.11 2.063-.112 4.218-.457 6.709-6.412-2.212-.244-4.31.457-6.709z"/><path fill="#152427" d="M365.99 275.313c4.672.632 2.07 3.057 1.144 5.416-.29.42-.447.528-.823.45-.883-1.95-.886-3.745-.322-5.866z"/><path fill="#213538" d="M366.068 281.344c.025-.351.48-.33.707-.317 2.28 1.235 3.05 3.145 3.09 5.796-2.29-.777-3.023-2.976-3.797-5.479z"/><path fill="#F5F8F8" d="M512.89 767.381c-2.03.392-4.176.431-6.697.365 1.75-2.506 4.097-2.386 6.697-.365z"/><path fill="#3A494D" d="M657.672 403.022c-.471-2.365-.715-4.98-.704-7.842 1.895 2.244 1.338 4.925.704 7.842z"/><path fill="#091720" d="M483.644 522.958c2.425-1.102 4.147-.094 5.294 2.605-2.099.278-3.685-.893-5.294-2.605z"/><path fill="#3A494D" d="M645.325 411.858c1.076-2.87 4.147-1.32 6.573-2.477-1.448 1.835-3.859 2.108-6.573 2.477z"/><path fill="#F5F8F8" d="M502.14 759.986c-.482-.444-.585-.89-.54-1.653 1.693-.085 3.043-1.82 4.929-.661-.68 1.988-2.334 2.167-4.388 2.314z"/><path fill="#3A494D" d="M652.771 409.24c-.839-2.508-.265-4.232 3.246-3.978-.227 1.718-1.497 2.883-3.246 3.978z"/><path fill="#F5F8F8" d="M531.497 644.06c.244 1.08.167 2.225-.113 3.653-3.788-1-1.395-2.295.113-3.653z"/><path fill="#3A494D" d="M373.672 409.76c.253.215.346.655.357.88-1.634.228-2.777-.848-4.199-1.945 1.312-.632 2.438.152 3.842 1.065z"/><path fill="#F5F8F8" d="M526.367 688.005c.318.815.288 1.644.077 2.73-1.124.174-2.132.045-2.233-1.127-.102-1.198.823-1.489 2.156-1.603z"/><path fill="#091720" d="M605.372 518.836c-1.863-.906-.889-1.731.323-2.695.161.739.05 1.612-.323 2.695z"/><path fill="#F5F8F8" d="M530.558 652.065c.332.48.355 1.03.273 1.835-1.201-.197-2.223-.668-.273-1.835zm4.236-37.008c.33.487.326 1.027.203 1.814-1.397-.187-2.378-.681-.203-1.814z"/><path fill="#3A494D" d="M657.253 403.508c-.253.092-.75.324-.784.27-.233-.38-.059-.54.627-.352.231.052.127.089.157.082z"/><path fill="#F5F8F8" d="M529.934 658.066c.224.104.273.281.18.696-.289.05-.455-.128-.57-.333-.024-.043.138-.19.39-.363zm-26.692 109.118c-.007.602-.437.77-1.023.08.198-.232.435-.195 1.023-.08zm1.216-5.658c-.028-.048.027.049 0 0z"/><path fill="#1D3141" d="M461.326 768.973c-.36-.017-.35-.428-.343-.633 1.074-.262 2.139-.318 3.598-.292-.502 1.134-1.73.922-3.255.925z"/><path fill="#CBDBE1" d="M311.553 464.073c-1.036-3.529 3.282-5.65 2.497-9.694 1.898 3.513.97 6.804-2.497 9.694zm2.534-10.529c-2.699-.916-3.61-3.589-4.981-6.253 2.948.701 4.33 3.013 4.98 6.253zm-20.067-21.002c-2.104.307-3.237-1.001-3.892-3.245 1.96-.058 2.884 1.438 3.892 3.245zm14.984 14.042c-1.47.37-2.444-.349-2.95-2.104 1.44-.313 2.313.534 2.95 2.104zm-3.67 20.335c.88-1.181 2.31-1.82 4.33-1.855-.67 1.623-2.245 1.95-4.33 1.855zm-24.467-47.245c-1.434.224-2.38-.514-2.832-2.243 1.455-.268 2.272.648 2.832 2.243zm7.197 6.919c-1.536.39-2.533-.372-2.99-2.252 1.385-.142 2.292.713 2.99 2.252zm-3.121-2.933c-.835.273-1.531-.043-1.874-1.256.864-.299 1.442.182 1.874 1.256zm12.209 11.879c-.34-.03-.74-.324-1.216-.867.335.035.746.318 1.216.867zm-36.119-34.924c-.265.224-.549.078-.836-.453.265-.205.538-.05.836.453zm49.304 64.379c-.174-.298.013-.552.562-.763.188.308.001.562-.562.763zm-45.213-60.427c-.199.069-.499-.097-.869-.52.21-.076.49.105.87.52zm10.632 10.197c-.234.148-.442.005-.68-.387.243-.229.488-.114.68.387zm2.063 2.026c-.218.147-.437.01-.693-.379.236-.222.478-.106.693.38zm12.141 11.861c-.272.2-.54.037-.801-.49.263-.181.53-.017.801.49zm15.83 15.099c-.233.146-.45-.003-.692-.418.234-.188.478-.058.691.418zm-9.997 19.768c2.15.75 4.44 1.83 6.94 3.16-2.962 1.125-4.96-.672-6.94-3.16zm-1.622-1.317c.25-.176.492-.027.762.42-.262.243-.527.113-.762-.42zm-2.033-1.991c.257-.176.515-.014.794.47-.267.214-.539.063-.794-.47z"/></svg>